<svg width="42" height="43" viewBox="0 0 42 43" fill="black" xmlns="http://www.w3.org/2000/svg">
<path d="M20.371 1.43981C20.4493 0.781133 21.4051 0.781133 21.4833 1.43981L22.1389 6.96547C22.9855 14.1006 28.611 19.7261 35.7461 20.5727L41.2718 21.2283C41.9305 21.3066 41.9305 22.2624 41.2718 22.3406L35.7461 22.9962C28.611 23.8428 22.9855 29.4683 22.1389 36.6034L21.4833 42.1291C21.4051 42.7878 20.4493 42.7878 20.371 42.1291L19.7154 36.6034C18.8688 29.4683 13.2433 23.8428 6.10817 22.9962L0.582505 22.3406C-0.0761672 22.2624 -0.0761672 21.3066 0.582505 21.2283L6.10817 20.5727C13.2433 19.7261 18.8688 14.1006 19.7154 6.96547L20.371 1.43981Z" />
</svg>